<svg xmlns="http://www.w3.org/2000/svg" xmlns:xlink="http://www.w3.org/1999/xlink" width="452" zoomAndPan="magnify" viewBox="0 0 339 71.249999" height="95" preserveAspectRatio="xMidYMid meet" version="1.0"><defs><g/><clipPath id="d52f596d26"><path d="M 267.039062 0 L 336.820312 0 L 336.820312 69.777344 L 267.039062 69.777344 Z M 267.039062 0 " clip-rule="nonzero"/></clipPath><clipPath id="7f65532d4e"><path d="M 286.335938 0 L 317.523438 0 C 328.179688 0 336.820312 8.640625 336.820312 19.296875 L 336.820312 50.480469 C 336.820312 61.136719 328.179688 69.777344 317.523438 69.777344 L 286.335938 69.777344 C 275.679688 69.777344 267.039062 61.136719 267.039062 50.480469 L 267.039062 19.296875 C 267.039062 8.640625 275.679688 0 286.335938 0 Z M 286.335938 0 " clip-rule="nonzero"/></clipPath><clipPath id="e3bef7595a"><path d="M 273.980469 13.96875 L 287 13.96875 L 287 55.53125 L 273.980469 55.53125 Z M 273.980469 13.96875 " clip-rule="nonzero"/></clipPath><clipPath id="7f58c965c7"><path d="M 317 13.96875 L 329.996094 13.96875 L 329.996094 55.53125 L 317 55.53125 Z M 317 13.96875 " clip-rule="nonzero"/></clipPath><clipPath id="99e222679c"><path d="M 291 24 L 314 24 L 314 49.742188 L 291 49.742188 Z M 291 24 " clip-rule="nonzero"/></clipPath><clipPath id="66ecf68f90"><path d="M 306 22 L 316.640625 22 L 316.640625 29 L 306 29 Z M 306 22 " clip-rule="nonzero"/></clipPath><clipPath id="e843284585"><path d="M 298 20.054688 L 305 20.054688 L 305 31 L 298 31 Z M 298 20.054688 " clip-rule="nonzero"/></clipPath><clipPath id="658651e638"><path d="M 298 20.054688 L 303 20.054688 L 303 30 L 298 30 Z M 298 20.054688 " clip-rule="nonzero"/></clipPath><clipPath id="70011b922b"><path d="M 307 23 L 316.640625 23 L 316.640625 28 L 307 28 Z M 307 23 " clip-rule="nonzero"/></clipPath></defs><g clip-path="url(#d52f596d26)"><g clip-path="url(#7f65532d4e)"><path fill="#df678c" d="M 267.039062 0 L 336.820312 0 L 336.820312 69.777344 L 267.039062 69.777344 Z M 267.039062 0 " fill-opacity="1" fill-rule="nonzero"/></g></g><g clip-path="url(#e3bef7595a)"><path fill="#ffffff" d="M 285.609375 18.617188 L 286.769531 18.617188 L 286.769531 13.96875 L 285.609375 13.96875 C 281.757812 13.96875 278.632812 17.089844 278.632812 20.941406 L 278.632812 29.078125 C 278.632812 29.808594 278.289062 30.496094 277.703125 30.9375 L 274.914062 33.027344 C 274.355469 33.449219 274.015625 34.09375 273.988281 34.792969 C 273.957031 35.488281 274.246094 36.164062 274.765625 36.625 L 277.855469 39.371094 C 278.351562 39.8125 278.632812 40.445312 278.632812 41.109375 L 278.632812 48.835938 C 278.632812 52.6875 281.757812 55.808594 285.609375 55.808594 L 286.769531 55.808594 L 286.769531 51.160156 L 285.609375 51.160156 C 284.324219 51.160156 283.285156 50.117188 283.285156 48.835938 L 283.285156 41.109375 C 283.285156 39.117188 282.429688 37.21875 280.941406 35.894531 L 279.980469 35.039062 L 280.492188 34.65625 C 282.25 33.339844 283.285156 31.273438 283.285156 29.078125 L 283.285156 20.941406 C 283.285156 19.65625 284.324219 18.617188 285.609375 18.617188 Z M 285.609375 18.617188 " fill-opacity="1" fill-rule="evenodd"/></g><g clip-path="url(#7f58c965c7)"><path fill="#ffffff" d="M 318.472656 18.617188 L 317.3125 18.617188 L 317.3125 13.96875 L 318.472656 13.96875 C 322.324219 13.96875 325.445312 17.089844 325.445312 20.941406 L 325.445312 29.078125 C 325.445312 29.808594 325.792969 30.496094 326.375 30.9375 L 329.164062 33.027344 C 329.722656 33.449219 330.066406 34.09375 330.09375 34.792969 C 330.121094 35.488281 329.835938 36.164062 329.316406 36.625 L 326.226562 39.371094 C 325.730469 39.8125 325.445312 40.445312 325.445312 41.109375 L 325.445312 48.835938 C 325.445312 52.6875 322.324219 55.808594 318.472656 55.808594 L 317.3125 55.808594 L 317.3125 51.160156 L 318.472656 51.160156 C 319.757812 51.160156 320.796875 50.117188 320.796875 48.835938 L 320.796875 41.109375 C 320.796875 39.117188 321.648438 37.21875 323.140625 35.894531 L 324.101562 35.039062 L 323.585938 34.65625 C 321.832031 33.339844 320.796875 31.273438 320.796875 29.078125 L 320.796875 20.941406 C 320.796875 19.65625 319.757812 18.617188 318.472656 18.617188 Z M 318.472656 18.617188 " fill-opacity="1" fill-rule="evenodd"/></g><g clip-path="url(#99e222679c)"><path fill="#ffffff" d="M 296.929688 33.054688 C 297.703125 34.195312 298.125 35.460938 298.199219 36.769531 C 298.527344 36.308594 298.859375 35.851562 299.203125 35.402344 C 299.253906 35.335938 299.300781 35.273438 299.347656 35.210938 C 300.085938 34.246094 300.851562 33.28125 301.664062 32.347656 C 302.332031 31.132812 302.5625 29.8125 302.371094 28.476562 C 302.347656 28.34375 302.59375 28.332031 302.613281 28.464844 C 302.777344 29.574219 302.640625 30.679688 302.21875 31.722656 C 302.945312 30.921875 303.710938 30.152344 304.523438 29.433594 C 306.933594 27.304688 309.957031 26.105469 313.101562 24.988281 C 313.246094 24.933594 313.320312 25.136719 313.175781 25.1875 C 310.308594 26.210938 307.472656 27.28125 305.199219 29.152344 C 303.988281 30.152344 302.898438 31.273438 301.882812 32.445312 C 301.871094 32.464844 301.863281 32.476562 301.839844 32.492188 C 301.152344 33.285156 300.503906 34.101562 299.871094 34.914062 C 302.132812 33.710938 304.652344 32.933594 307.289062 32.613281 C 307.445312 32.59375 307.457031 32.804688 307.304688 32.824219 C 304.523438 33.160156 301.882812 34.019531 299.539062 35.347656 C 298.089844 37.238281 296.777344 39.203125 295.601562 41.230469 C 296.410156 40.761719 297.328125 40.433594 298.226562 40.113281 C 299.3125 39.726562 300.4375 39.46875 301.605469 39.355469 C 301.761719 39.335938 301.773438 39.550781 301.617188 39.566406 C 300.46875 39.679688 299.371094 39.933594 298.300781 40.316406 C 297.28125 40.679688 296.246094 41.046875 295.367188 41.636719 C 294.382812 43.371094 293.503906 45.144531 292.726562 46.953125 C 293.878906 46.558594 295.28125 46.378906 296.515625 46.390625 C 296.671875 46.394531 296.6875 46.605469 296.527344 46.601562 C 295.277344 46.589844 293.871094 46.769531 292.714844 47.183594 C 292.683594 47.195312 292.65625 47.191406 292.628906 47.183594 C 292.480469 47.53125 292.339844 47.882812 292.199219 48.234375 C 292.003906 48.726562 291.816406 49.222656 291.636719 49.71875 C 291.566406 49.6875 291.488281 49.664062 291.410156 49.648438 C 292.070312 47.824219 292.835938 46.023438 293.707031 44.265625 C 293.703125 44.253906 293.703125 44.25 293.703125 44.238281 C 293.835938 42.84375 293.46875 41.46875 292.734375 40.222656 C 292.664062 40.101562 292.871094 39.988281 292.941406 40.109375 C 293.613281 41.246094 293.980469 42.46875 293.96875 43.734375 C 294.28125 43.125 294.601562 42.523438 294.933594 41.925781 C 295.851562 40.273438 296.867188 38.664062 297.964844 37.097656 C 297.949219 35.707031 297.535156 34.371094 296.722656 33.171875 C 296.644531 33.054688 296.851562 32.9375 296.929688 33.054688 " fill-opacity="1" fill-rule="nonzero"/></g><path fill="#ffffff" d="M 304.792969 41.027344 C 304.375 41.261719 303.953125 41.496094 303.480469 41.628906 C 302.609375 41.875 301.65625 41.753906 300.761719 41.582031 C 299.628906 41.363281 298.515625 41.0625 297.441406 40.683594 C 297.753906 40.109375 298.148438 39.566406 298.625 39.082031 C 299.027344 38.671875 299.484375 38.300781 300.007812 38.007812 C 301.503906 37.179688 303.453125 37.105469 305.144531 37.582031 C 306.0625 37.84375 306.910156 38.25 307.683594 38.753906 C 307.039062 39.6875 305.882812 40.410156 304.792969 41.027344 " fill-opacity="1" fill-rule="nonzero"/><path fill="#ffffff" d="M 303.167969 44.851562 C 303.285156 44.902344 303.40625 44.953125 303.527344 45 C 303.09375 46.058594 302.4375 47 301.324219 47.539062 C 300.410156 47.984375 299.320312 48.074219 298.273438 48.050781 C 296.550781 48.011719 294.800781 47.660156 293.292969 46.957031 C 294.273438 45.824219 295.65625 44.949219 297.214844 44.511719 C 299.152344 43.960938 301.332031 44.089844 303.167969 44.851562 " fill-opacity="1" fill-rule="nonzero"/><g clip-path="url(#66ecf68f90)"><path fill="#ffffff" d="M 309.796875 28.386719 C 308.800781 28.308594 307.855469 27.996094 306.972656 27.578125 C 307.777344 26.210938 308.816406 24.96875 310.21875 24.039062 C 312.085938 22.800781 314.714844 22.269531 316.894531 22.90625 C 316.605469 24.230469 315.96875 25.503906 314.933594 26.507812 C 313.652344 27.75 311.71875 28.535156 309.796875 28.386719 " fill-opacity="1" fill-rule="nonzero"/></g><path fill="#ffffff" d="M 311.109375 33.835938 C 309.472656 34.828125 307.378906 35.332031 305.425781 34.957031 C 304.398438 34.757812 303.460938 34.339844 302.5625 33.855469 C 303.707031 32.597656 305.296875 31.648438 307.046875 31.1875 C 309.289062 30.597656 311.652344 30.808594 313.929688 31.21875 C 313.175781 32.230469 312.246094 33.144531 311.109375 33.835938 " fill-opacity="1" fill-rule="nonzero"/><path fill="#ffffff" d="M 292.554688 37.292969 C 293.722656 38.824219 294.265625 40.753906 293.832031 42.53125 C 292.714844 42.480469 291.613281 42.148438 290.726562 41.558594 C 290.269531 41.253906 289.867188 40.886719 289.507812 40.5 C 287.722656 38.574219 286.957031 36.003906 287.316406 33.566406 C 289.390625 34.421875 291.296875 35.640625 292.554688 37.292969 " fill-opacity="1" fill-rule="nonzero"/><path fill="#ffffff" d="M 297.804688 34.933594 C 297.789062 35.046875 297.765625 35.164062 297.734375 35.28125 C 296.078125 34.996094 294.609375 33.902344 293.585938 32.6875 C 292.398438 31.28125 291.554688 29.527344 291.9375 27.816406 C 292.105469 27.046875 292.511719 26.34375 292.929688 25.640625 C 296.324219 27.683594 298.285156 31.386719 297.804688 34.933594 " fill-opacity="1" fill-rule="nonzero"/><g clip-path="url(#e843284585)"><path fill="#ffffff" d="M 304.078125 25.160156 C 304.417969 26.992188 303.546875 28.789062 302.457031 30.421875 C 301.5 29.835938 300.617188 29.167969 299.902344 28.371094 C 298.902344 27.257812 298.25 25.867188 298.328125 24.460938 C 298.421875 22.859375 299.398438 21.464844 300.347656 20.054688 C 301.398438 20.832031 302.300781 21.761719 303.007812 22.785156 C 303.511719 23.519531 303.921875 24.316406 304.078125 25.160156 " fill-opacity="1" fill-rule="nonzero"/></g><path fill="#e3f2b3" d="M 292.835938 41.726562 C 292.835938 41.726562 292.757812 41.703125 292.609375 41.660156 C 292.460938 41.617188 292.242188 41.546875 291.96875 41.441406 C 291.425781 41.230469 290.660156 40.859375 289.894531 40.214844 C 289.132812 39.578125 288.398438 38.640625 288.023438 37.472656 C 287.832031 36.886719 287.738281 36.25 287.765625 35.59375 C 287.773438 35.261719 287.804688 34.925781 287.792969 34.578125 C 287.792969 34.40625 287.777344 34.230469 287.746094 34.058594 L 287.734375 33.992188 L 287.730469 33.976562 L 287.8125 34.050781 C 288.378906 34.558594 288.929688 35.050781 289.460938 35.53125 C 289.722656 35.773438 289.984375 36.007812 290.230469 36.246094 C 290.46875 36.488281 290.691406 36.730469 290.898438 36.976562 C 291.722656 37.964844 292.285156 38.957031 292.679688 39.808594 C 293.078125 40.664062 293.316406 41.382812 293.46875 41.878906 C 293.546875 42.128906 293.605469 42.320312 293.640625 42.453125 C 293.660156 42.519531 293.675781 42.570312 293.683594 42.601562 C 293.695312 42.636719 293.703125 42.652344 293.703125 42.652344 C 293.707031 42.652344 293.703125 42.636719 293.695312 42.601562 C 293.6875 42.566406 293.679688 42.515625 293.664062 42.449219 C 293.632812 42.316406 293.585938 42.121094 293.515625 41.871094 C 293.371094 41.367188 293.148438 40.644531 292.753906 39.785156 C 292.367188 38.921875 291.8125 37.921875 290.984375 36.925781 C 290.777344 36.675781 290.554688 36.429688 290.3125 36.183594 C 290.066406 35.945312 289.804688 35.707031 289.542969 35.464844 C 289.015625 34.980469 288.460938 34.488281 287.894531 33.980469 C 287.78125 33.878906 287.667969 33.777344 287.550781 33.671875 C 287.523438 33.640625 287.546875 33.6875 287.546875 33.703125 L 287.5625 33.765625 L 287.59375 33.894531 L 287.609375 33.960938 L 287.621094 34.007812 L 287.632812 34.070312 C 287.664062 34.242188 287.675781 34.410156 287.679688 34.582031 C 287.6875 34.921875 287.664062 35.257812 287.652344 35.589844 C 287.628906 36.257812 287.730469 36.90625 287.929688 37.492188 C 288.320312 38.679688 289.074219 39.617188 289.855469 40.25 C 290.636719 40.890625 291.414062 41.253906 291.960938 41.453125 C 292.238281 41.558594 292.457031 41.621094 292.605469 41.664062 C 292.757812 41.703125 292.835938 41.726562 292.835938 41.726562 " fill-opacity="1" fill-rule="nonzero"/><path fill="#e3f2b3" d="M 295.207031 33.71875 C 295.207031 33.71875 295.160156 33.671875 295.070312 33.582031 C 294.980469 33.488281 294.851562 33.355469 294.691406 33.175781 C 294.371094 32.816406 293.925781 32.28125 293.511719 31.554688 C 293.101562 30.828125 292.730469 29.902344 292.667969 28.835938 C 292.636719 28.304688 292.683594 27.742188 292.847656 27.179688 C 292.925781 26.898438 293.035156 26.621094 293.195312 26.359375 L 293.257812 26.261719 L 293.273438 26.234375 L 293.398438 26.367188 C 293.511719 26.488281 293.628906 26.601562 293.734375 26.726562 C 294.175781 27.210938 294.5625 27.710938 294.917969 28.207031 C 295.269531 28.703125 295.574219 29.199219 295.84375 29.679688 C 296.371094 30.648438 296.738281 31.5625 296.984375 32.339844 C 297.230469 33.121094 297.367188 33.765625 297.445312 34.214844 C 297.488281 34.4375 297.507812 34.613281 297.53125 34.730469 C 297.539062 34.789062 297.546875 34.835938 297.550781 34.863281 C 297.558594 34.894531 297.5625 34.910156 297.566406 34.910156 C 297.566406 34.910156 297.566406 34.894531 297.566406 34.863281 C 297.5625 34.832031 297.558594 34.789062 297.550781 34.726562 C 297.539062 34.609375 297.527344 34.433594 297.492188 34.207031 C 297.425781 33.757812 297.300781 33.109375 297.0625 32.324219 C 296.824219 31.539062 296.464844 30.617188 295.941406 29.640625 C 295.671875 29.15625 295.367188 28.65625 295.015625 28.15625 C 294.660156 27.660156 294.269531 27.152344 293.824219 26.664062 C 293.71875 26.539062 293.597656 26.425781 293.488281 26.304688 C 293.417969 26.230469 293.347656 26.160156 293.277344 26.085938 C 293.273438 26.078125 293.265625 26.070312 293.257812 26.066406 L 293.242188 26.089844 L 293.207031 26.140625 L 293.15625 26.210938 L 293.09375 26.3125 C 292.929688 26.585938 292.820312 26.871094 292.738281 27.15625 C 292.578125 27.730469 292.535156 28.300781 292.574219 28.839844 C 292.644531 29.921875 293.035156 30.855469 293.460938 31.574219 C 293.886719 32.300781 294.347656 32.832031 294.675781 33.183594 C 294.839844 33.359375 294.976562 33.496094 295.066406 33.582031 C 295.160156 33.671875 295.207031 33.71875 295.207031 33.71875 " fill-opacity="1" fill-rule="nonzero"/><g clip-path="url(#658651e638)"><path fill="#e3f2b3" d="M 300.261719 28.40625 C 300.261719 28.40625 300.226562 28.359375 300.15625 28.269531 C 300.085938 28.179688 299.988281 28.042969 299.871094 27.859375 C 299.640625 27.492188 299.332031 26.9375 299.121094 26.191406 C 298.910156 25.449219 298.796875 24.515625 298.996094 23.480469 C 299.097656 22.964844 299.269531 22.429688 299.535156 21.898438 C 299.664062 21.632812 299.824219 21.367188 300 21.105469 C 300.089844 20.976562 300.1875 20.847656 300.289062 20.722656 C 300.339844 20.660156 300.390625 20.59375 300.445312 20.53125 L 300.554688 20.410156 C 300.5625 20.425781 300.578125 20.453125 300.597656 20.484375 C 300.660156 20.597656 300.746094 20.757812 300.835938 20.914062 C 301.144531 21.5 301.398438 22.085938 301.617188 22.660156 C 301.828125 23.238281 302 23.804688 302.128906 24.347656 C 302.386719 25.4375 302.484375 26.441406 302.503906 27.28125 C 302.519531 28.121094 302.460938 28.800781 302.40625 29.269531 C 302.382812 29.503906 302.347656 29.6875 302.335938 29.808594 C 302.328125 29.871094 302.320312 29.917969 302.316406 29.949219 C 302.3125 29.980469 302.3125 29.996094 302.316406 30 C 302.316406 30 302.324219 29.984375 302.332031 29.953125 C 302.335938 29.921875 302.34375 29.875 302.359375 29.8125 C 302.378906 29.691406 302.421875 29.507812 302.453125 29.273438 C 302.523438 28.808594 302.589844 28.125 302.585938 27.277344 C 302.574219 26.433594 302.488281 25.425781 302.234375 24.328125 C 302.105469 23.78125 301.9375 23.210938 301.726562 22.632812 C 301.507812 22.050781 301.25 21.460938 300.941406 20.875 C 300.742188 20.515625 300.613281 20.285156 300.578125 20.222656 C 300.503906 20.304688 300.429688 20.390625 300.355469 20.472656 C 300.300781 20.535156 300.246094 20.601562 300.195312 20.667969 C 300.09375 20.796875 299.996094 20.925781 299.90625 21.058594 C 299.726562 21.324219 299.570312 21.589844 299.4375 21.863281 C 299.171875 22.402344 299 22.945312 298.90625 23.46875 C 298.714844 24.515625 298.84375 25.460938 299.070312 26.203125 C 299.296875 26.949219 299.617188 27.503906 299.859375 27.863281 C 299.980469 28.046875 300.082031 28.183594 300.152344 28.273438 C 300.222656 28.359375 300.261719 28.40625 300.261719 28.40625 " fill-opacity="1" fill-rule="nonzero"/></g><path fill="#e3f2b3" d="M 300.421875 40.910156 C 300.421875 40.910156 300.484375 40.921875 300.597656 40.933594 C 300.710938 40.949219 300.878906 40.964844 301.097656 40.972656 C 301.53125 40.984375 302.167969 40.953125 302.921875 40.777344 C 303.675781 40.601562 304.535156 40.273438 305.417969 39.816406 C 305.859375 39.585938 306.3125 39.332031 306.773438 39.058594 C 306.917969 38.972656 307.0625 38.886719 307.210938 38.800781 L 307.222656 38.796875 C 307.226562 38.792969 307.214844 38.792969 307.210938 38.792969 L 307.1875 38.785156 L 307.136719 38.769531 L 307.039062 38.742188 L 306.921875 38.707031 C 306.851562 38.6875 306.78125 38.667969 306.710938 38.652344 C 306.433594 38.578125 306.140625 38.527344 305.847656 38.484375 C 304.664062 38.324219 303.507812 38.425781 302.503906 38.621094 C 301.5 38.824219 300.632812 39.125 299.925781 39.40625 C 299.214844 39.6875 298.664062 39.949219 298.285156 40.136719 C 298.097656 40.230469 297.953125 40.304688 297.855469 40.355469 C 297.757812 40.40625 297.707031 40.433594 297.707031 40.4375 C 297.710938 40.441406 297.765625 40.417969 297.867188 40.371094 C 297.96875 40.324219 298.117188 40.257812 298.308594 40.167969 C 298.691406 39.996094 299.25 39.742188 299.957031 39.46875 C 300.664062 39.199219 301.53125 38.910156 302.53125 38.710938 C 303.523438 38.523438 304.664062 38.425781 305.832031 38.585938 C 306.121094 38.625 306.40625 38.675781 306.679688 38.746094 C 306.75 38.761719 306.816406 38.777344 306.886719 38.800781 L 306.972656 38.824219 L 306.972656 38.828125 L 306.886719 38.878906 C 306.828125 38.910156 306.769531 38.945312 306.710938 38.980469 C 306.25 39.253906 305.804688 39.511719 305.367188 39.742188 C 304.496094 40.207031 303.652344 40.542969 302.90625 40.726562 C 302.160156 40.917969 301.527344 40.960938 301.097656 40.957031 C 300.878906 40.953125 300.710938 40.941406 300.597656 40.929688 C 300.484375 40.917969 300.421875 40.910156 300.421875 40.910156 " fill-opacity="1" fill-rule="nonzero"/><path fill="#e3f2b3" d="M 295.839844 47.324219 C 295.839844 47.324219 295.902344 47.335938 296.019531 47.359375 C 296.140625 47.382812 296.316406 47.410156 296.542969 47.441406 C 297 47.5 297.667969 47.5625 298.492188 47.496094 C 299.316406 47.433594 300.300781 47.234375 301.25 46.746094 C 301.71875 46.503906 302.179688 46.195312 302.578125 45.808594 C 302.777344 45.613281 302.960938 45.40625 303.125 45.175781 L 303.183594 45.089844 L 303.230469 45.019531 L 303.261719 44.976562 L 303.273438 44.953125 C 303.277344 44.949219 303.261719 44.949219 303.253906 44.949219 L 302.953125 44.910156 C 302.796875 44.890625 302.644531 44.863281 302.484375 44.851562 C 301.859375 44.789062 301.242188 44.777344 300.644531 44.792969 C 300.050781 44.808594 299.480469 44.871094 298.9375 44.945312 C 297.863281 45.113281 296.921875 45.382812 296.164062 45.667969 C 295.40625 45.953125 294.824219 46.246094 294.4375 46.460938 C 294.246094 46.566406 294.101562 46.664062 294.003906 46.722656 C 293.90625 46.785156 293.851562 46.816406 293.855469 46.820312 C 293.859375 46.824219 293.914062 46.796875 294.015625 46.738281 C 294.121094 46.683594 294.265625 46.59375 294.464844 46.492188 C 294.855469 46.289062 295.4375 46.007812 296.195312 45.730469 C 296.953125 45.457031 297.886719 45.199219 298.957031 45.039062 C 299.492188 44.964844 300.058594 44.90625 300.648438 44.890625 C 301.238281 44.875 301.851562 44.886719 302.472656 44.953125 C 302.628906 44.964844 302.78125 44.988281 302.933594 45.007812 L 303.09375 45.027344 L 303.082031 45.042969 L 303.027344 45.125 C 302.867188 45.347656 302.6875 45.554688 302.496094 45.746094 C 302.109375 46.125 301.65625 46.429688 301.199219 46.675781 C 300.273438 47.164062 299.300781 47.371094 298.488281 47.445312 C 297.671875 47.523438 297.003906 47.476562 296.546875 47.425781 C 296.316406 47.402344 296.140625 47.375 296.023438 47.355469 C 295.902344 47.335938 295.839844 47.324219 295.839844 47.324219 " fill-opacity="1" fill-rule="nonzero"/><path fill="#e3f2b3" d="M 305.074219 34.917969 C 305.074219 34.917969 305.148438 34.933594 305.28125 34.964844 C 305.351562 34.980469 305.4375 34.996094 305.535156 35.011719 C 305.636719 35.03125 305.753906 35.050781 305.886719 35.0625 C 306.414062 35.128906 307.199219 35.148438 308.136719 34.96875 C 309.070312 34.789062 310.140625 34.386719 311.132812 33.699219 C 311.625 33.359375 312.101562 32.953125 312.535156 32.492188 C 312.753906 32.261719 312.960938 32.019531 313.15625 31.761719 C 313.207031 31.695312 313.253906 31.632812 313.300781 31.566406 L 313.375 31.46875 L 313.453125 31.355469 L 313.589844 31.15625 L 313.59375 31.148438 L 313.585938 31.152344 L 313.539062 31.164062 L 313.476562 31.183594 L 313.347656 31.222656 L 313.195312 31.269531 C 313.152344 31.28125 313.109375 31.292969 313.066406 31.304688 C 311.683594 31.679688 310.296875 31.804688 309.050781 31.949219 C 307.800781 32.085938 306.671875 32.257812 305.761719 32.507812 C 304.84375 32.75 304.152344 33.0625 303.707031 33.316406 C 303.59375 33.378906 303.5 33.441406 303.417969 33.492188 C 303.332031 33.542969 303.265625 33.59375 303.210938 33.632812 C 303.160156 33.671875 303.117188 33.703125 303.089844 33.722656 C 303.0625 33.742188 303.050781 33.753906 303.050781 33.753906 C 303.054688 33.757812 303.070312 33.746094 303.097656 33.730469 C 303.125 33.710938 303.171875 33.683594 303.226562 33.648438 C 303.28125 33.609375 303.351562 33.566406 303.4375 33.515625 C 303.519531 33.46875 303.617188 33.410156 303.730469 33.351562 C 304.179688 33.105469 304.871094 32.804688 305.785156 32.574219 C 306.695312 32.335938 307.8125 32.171875 309.0625 32.039062 C 310.3125 31.898438 311.703125 31.777344 313.101562 31.398438 C 313.144531 31.386719 313.1875 31.375 313.230469 31.363281 L 313.335938 31.332031 L 313.277344 31.417969 L 313.207031 31.515625 C 313.15625 31.578125 313.109375 31.644531 313.0625 31.707031 C 312.871094 31.960938 312.664062 32.203125 312.449219 32.429688 C 312.023438 32.890625 311.554688 33.292969 311.070312 33.632812 C 310.097656 34.320312 309.046875 34.730469 308.121094 34.917969 C 307.199219 35.109375 306.414062 35.105469 305.886719 35.046875 C 305.757812 35.035156 305.640625 35.019531 305.539062 35.003906 C 305.4375 34.988281 305.351562 34.976562 305.285156 34.960938 C 305.148438 34.933594 305.074219 34.917969 305.074219 34.917969 " fill-opacity="1" fill-rule="nonzero"/><g clip-path="url(#70011b922b)"><path fill="#e3f2b3" d="M 311.773438 27.347656 C 311.773438 27.347656 311.8125 27.34375 311.890625 27.332031 C 311.96875 27.324219 312.085938 27.304688 312.238281 27.269531 C 312.542969 27.203125 312.992188 27.070312 313.507812 26.785156 C 314.023438 26.5 314.601562 26.0625 315.136719 25.445312 C 315.40625 25.140625 315.664062 24.792969 315.917969 24.410156 C 316.042969 24.21875 316.167969 24.015625 316.296875 23.808594 C 316.359375 23.707031 316.421875 23.601562 316.484375 23.492188 C 316.578125 23.335938 316.671875 23.175781 316.765625 23.011719 C 316.75 23.039062 316.75 23.039062 316.761719 23.019531 C 316.78125 23 316.75 23.023438 316.730469 23.03125 C 316.710938 23.042969 316.683594 23.058594 316.648438 23.078125 C 316.558594 23.132812 316.40625 23.21875 316.21875 23.328125 C 315.941406 23.488281 315.546875 23.710938 315.136719 23.933594 C 313.058594 25.074219 311.070312 25.953125 309.605469 26.535156 C 308.875 26.832031 308.273438 27.050781 307.855469 27.207031 C 307.648438 27.28125 307.488281 27.34375 307.378906 27.382812 C 307.269531 27.421875 307.214844 27.445312 307.214844 27.449219 C 307.214844 27.453125 307.273438 27.433594 307.386719 27.402344 C 307.5 27.363281 307.664062 27.3125 307.875 27.242188 C 308.292969 27.097656 308.902344 26.886719 309.640625 26.601562 C 311.113281 26.03125 313.113281 25.160156 315.199219 24.019531 C 315.609375 23.796875 316.003906 23.570312 316.28125 23.40625 C 316.351562 23.367188 316.414062 23.332031 316.46875 23.296875 L 316.480469 23.292969 L 316.480469 23.289062 L 316.484375 23.289062 C 316.492188 23.28125 316.492188 23.285156 316.496094 23.277344 C 316.460938 23.339844 316.425781 23.394531 316.394531 23.453125 C 316.332031 23.5625 316.269531 23.667969 316.207031 23.769531 C 316.085938 23.980469 315.960938 24.179688 315.839844 24.371094 C 315.589844 24.753906 315.339844 25.101562 315.074219 25.410156 C 314.554688 26.023438 313.992188 26.464844 313.484375 26.753906 C 312.976562 27.046875 312.535156 27.1875 312.234375 27.261719 C 312.085938 27.296875 311.96875 27.320312 311.890625 27.332031 C 311.8125 27.34375 311.773438 27.347656 311.773438 27.347656 " fill-opacity="1" fill-rule="nonzero"/></g><g fill="#df678c" fill-opacity="1"><g transform="translate(9.255937, 48.252762)"><g><path d="M 20.703125 -4.59375 L 22.28125 -2.125 C 21.300781 -1.320312 20.046875 -0.691406 18.515625 -0.234375 C 16.992188 0.210938 15.535156 0.4375 14.140625 0.4375 C 10.265625 0.4375 7.21875 -0.894531 5 -3.5625 C 2.789062 -6.226562 1.6875 -9.519531 1.6875 -13.4375 C 1.6875 -17.40625 2.800781 -20.671875 5.03125 -23.234375 C 7.257812 -25.804688 10.316406 -27.09375 14.203125 -27.09375 C 15.648438 -27.09375 17.140625 -26.84375 18.671875 -26.34375 C 20.203125 -25.84375 21.382812 -25.128906 22.21875 -24.203125 L 20.3125 -22.0625 C 19.625 -22.820312 18.691406 -23.421875 17.515625 -23.859375 C 16.335938 -24.304688 15.210938 -24.53125 14.140625 -24.53125 C 12.617188 -24.53125 11.28125 -24.203125 10.125 -23.546875 C 8.976562 -22.898438 8.070312 -22.019531 7.40625 -20.90625 C 6.75 -19.789062 6.253906 -18.59375 5.921875 -17.3125 C 5.597656 -16.03125 5.4375 -14.664062 5.4375 -13.21875 C 5.4375 -11.75 5.597656 -10.378906 5.921875 -9.109375 C 6.253906 -7.835938 6.757812 -6.6875 7.4375 -5.65625 C 8.113281 -4.625 9.03125 -3.804688 10.1875 -3.203125 C 11.351562 -2.609375 12.691406 -2.3125 14.203125 -2.3125 C 15.304688 -2.3125 16.460938 -2.519531 17.671875 -2.9375 C 18.890625 -3.351562 19.898438 -3.90625 20.703125 -4.59375 Z M 20.703125 -4.59375 "/></g></g></g><g fill="#df678c" fill-opacity="1"><g transform="translate(31.577087, 48.252762)"><g><path d="M 13.515625 0.40625 C 11.578125 0.40625 9.84375 0.0390625 8.3125 -0.6875 C 6.78125 -1.425781 5.535156 -2.4375 4.578125 -3.71875 C 3.628906 -5.007812 2.910156 -6.46875 2.421875 -8.09375 C 1.929688 -9.71875 1.6875 -11.460938 1.6875 -13.328125 C 1.6875 -17.242188 2.707031 -20.515625 4.75 -23.140625 C 6.800781 -25.773438 9.734375 -27.09375 13.546875 -27.09375 C 17.335938 -27.09375 20.253906 -25.773438 22.296875 -23.140625 C 24.347656 -20.515625 25.375 -17.242188 25.375 -13.328125 C 25.375 -10.804688 24.953125 -8.53125 24.109375 -6.5 C 23.265625 -4.46875 21.929688 -2.804688 20.109375 -1.515625 C 18.285156 -0.234375 16.085938 0.40625 13.515625 0.40625 Z M 21.8125 -13.328125 C 21.8125 -14.722656 21.664062 -16.054688 21.375 -17.328125 C 21.082031 -18.597656 20.628906 -19.785156 20.015625 -20.890625 C 19.398438 -21.992188 18.539062 -22.875 17.4375 -23.53125 C 16.34375 -24.195312 15.046875 -24.53125 13.546875 -24.53125 C 12.054688 -24.53125 10.757812 -24.195312 9.65625 -23.53125 C 8.550781 -22.875 7.691406 -21.984375 7.078125 -20.859375 C 6.472656 -19.734375 6.03125 -18.539062 5.75 -17.28125 C 5.46875 -16.019531 5.328125 -14.691406 5.328125 -13.296875 C 5.328125 -11.898438 5.46875 -10.570312 5.75 -9.3125 C 6.03125 -8.050781 6.472656 -6.863281 7.078125 -5.75 C 7.691406 -4.632812 8.550781 -3.742188 9.65625 -3.078125 C 10.757812 -2.421875 12.054688 -2.09375 13.546875 -2.09375 C 15.046875 -2.09375 16.347656 -2.421875 17.453125 -3.078125 C 18.566406 -3.742188 19.429688 -4.632812 20.046875 -5.75 C 20.660156 -6.863281 21.109375 -8.050781 21.390625 -9.3125 C 21.671875 -10.570312 21.8125 -11.910156 21.8125 -13.328125 Z M 21.8125 -13.328125 "/></g></g></g><g fill="#df678c" fill-opacity="1"><g transform="translate(58.046758, 48.252762)"><g><path d="M 11.859375 0 L 3.15625 0 L 3.15625 -24.3125 C 3.15625 -24.332031 3.113281 -24.523438 3.03125 -24.890625 C 2.945312 -25.265625 2.859375 -25.648438 2.765625 -26.046875 C 2.679688 -26.453125 2.640625 -26.679688 2.640625 -26.734375 L 9.515625 -26.734375 C 19.160156 -26.734375 23.984375 -22.253906 23.984375 -13.296875 C 23.984375 -9.273438 22.957031 -6.050781 20.90625 -3.625 C 18.863281 -1.207031 15.847656 0 11.859375 0 Z M 6.578125 -2.53125 L 11.421875 -2.53125 C 14.554688 -2.53125 16.835938 -3.519531 18.265625 -5.5 C 19.703125 -7.488281 20.421875 -10.109375 20.421875 -13.359375 C 20.421875 -17.160156 19.492188 -19.914062 17.640625 -21.625 C 15.796875 -23.34375 13 -24.203125 9.25 -24.203125 L 6.578125 -24.203125 Z M 6.578125 -2.53125 "/></g></g></g><g fill="#df678c" fill-opacity="1"><g transform="translate(83.121349, 48.252762)"><g><path d="M 18.6875 0 L 3.15625 0 L 3.15625 -24.3125 C 3.15625 -24.332031 3.113281 -24.523438 3.03125 -24.890625 C 2.945312 -25.265625 2.859375 -25.648438 2.765625 -26.046875 C 2.679688 -26.453125 2.640625 -26.679688 2.640625 -26.734375 L 18.6875 -26.734375 L 18.6875 -24.203125 L 6.578125 -24.203125 L 6.578125 -14.984375 L 15.96875 -14.984375 L 15.96875 -12.484375 L 6.578125 -12.484375 L 6.578125 -2.53125 L 18.6875 -2.53125 Z M 18.6875 0 "/></g></g></g><g fill="#df678c" fill-opacity="1"><g transform="translate(102.689057, 48.252762)"><g><path d="M 22 0 L 18.03125 0 L 11.125 -12.078125 C 10.5625 -12.023438 9.644531 -12 8.375 -12 L 6.53125 -12 L 6.53125 0 L 3.125 0 L 3.125 -24.3125 C 3.125 -24.332031 3.078125 -24.523438 2.984375 -24.890625 C 2.898438 -25.265625 2.816406 -25.648438 2.734375 -26.046875 C 2.648438 -26.453125 2.609375 -26.679688 2.609375 -26.734375 L 10.578125 -26.734375 C 16.597656 -26.734375 19.609375 -24.269531 19.609375 -19.34375 C 19.609375 -17.875 19.113281 -16.507812 18.125 -15.25 C 17.132812 -13.988281 15.925781 -13.140625 14.5 -12.703125 Z M 6.53125 -14.5 L 9.46875 -14.5 C 11.5 -14.5 13.101562 -14.875 14.28125 -15.625 C 15.457031 -16.375 16.046875 -17.691406 16.046875 -19.578125 C 16.046875 -21.066406 15.519531 -22.207031 14.46875 -23 C 13.414062 -23.800781 12.117188 -24.203125 10.578125 -24.203125 L 6.53125 -24.203125 Z M 6.53125 -14.5 "/></g></g></g><g fill="#df678c" fill-opacity="1"><g transform="translate(123.810157, 48.252762)"><g><path d="M 21.078125 -26.875 L 13.109375 -12.234375 L 13.109375 0 L 8.21875 0 L 8.21875 -12.234375 L 0.375 -26.875 L 5.796875 -26.875 L 11.15625 -16.890625 L 16.671875 -26.875 Z M 21.078125 -26.875 "/></g></g></g><g fill="#df678c" fill-opacity="1"><g transform="translate(144.665808, 48.252762)"><g/></g></g><g fill="#292929" fill-opacity="1"><g transform="translate(152.524647, 48.252762)"><g><path d="M 18.21875 -7.890625 C 18.21875 -5.296875 17.300781 -3.257812 15.46875 -1.78125 C 13.644531 -0.300781 11.414062 0.4375 8.78125 0.4375 C 5.425781 0.4375 2.546875 -0.269531 0.140625 -1.6875 L 1.875 -5.765625 C 3.78125 -3.972656 5.921875 -3.078125 8.296875 -3.078125 C 9.546875 -3.078125 10.617188 -3.421875 11.515625 -4.109375 C 12.410156 -4.796875 12.859375 -5.753906 12.859375 -6.984375 C 12.859375 -7.859375 12.5625 -8.640625 11.96875 -9.328125 C 11.382812 -10.015625 10.65625 -10.550781 9.78125 -10.9375 C 8.914062 -11.332031 7.96875 -11.789062 6.9375 -12.3125 C 5.90625 -12.84375 4.957031 -13.375 4.09375 -13.90625 C 3.226562 -14.445312 2.5 -15.210938 1.90625 -16.203125 C 1.320312 -17.203125 1.03125 -18.347656 1.03125 -19.640625 C 1.03125 -22.160156 1.90625 -24.066406 3.65625 -25.359375 C 5.40625 -26.660156 7.738281 -27.3125 10.65625 -27.3125 C 11.75 -27.3125 13.019531 -27.09375 14.46875 -26.65625 C 15.914062 -26.21875 17.015625 -25.703125 17.765625 -25.109375 L 15.234375 -21.953125 C 13.867188 -23.179688 12.179688 -23.796875 10.171875 -23.796875 C 9.140625 -23.796875 8.25 -23.523438 7.5 -22.984375 C 6.757812 -22.441406 6.390625 -21.679688 6.390625 -20.703125 C 6.390625 -19.847656 6.679688 -19.097656 7.265625 -18.453125 C 7.859375 -17.804688 8.585938 -17.285156 9.453125 -16.890625 C 10.328125 -16.492188 11.273438 -16.023438 12.296875 -15.484375 C 13.328125 -14.953125 14.273438 -14.410156 15.140625 -13.859375 C 16.015625 -13.304688 16.742188 -12.515625 17.328125 -11.484375 C 17.921875 -10.460938 18.21875 -9.265625 18.21875 -7.890625 Z M 18.21875 -7.890625 "/></g></g></g><g fill="#292929" fill-opacity="1"><g transform="translate(170.880848, 48.252762)"><g><path d="M 20.75 -23.25 L 13.1875 -23.25 L 13.1875 0 L 7.9375 0 L 7.9375 -23.25 L 0.484375 -23.25 L 0.484375 -26.875 L 20.75 -26.875 Z M 20.75 -23.25 "/></g></g></g><g fill="#292929" fill-opacity="1"><g transform="translate(191.513218, 48.252762)"><g><path d="M 23.09375 0 L 17.65625 0 L 15.015625 -7.71875 L 7.09375 -7.71875 L 4.328125 0 L 0.078125 0 L 9.578125 -26.875 L 13.59375 -26.875 Z M 13.8125 -11.3125 C 12.632812 -14.90625 11.703125 -17.960938 11.015625 -20.484375 C 10.179688 -17.429688 9.285156 -14.375 8.328125 -11.3125 Z M 13.8125 -11.3125 "/></g></g></g><g fill="#292929" fill-opacity="1"><g transform="translate(214.09135, 48.252762)"><g><path d="M 22.46875 -2.28125 C 20.925781 -1.320312 19.488281 -0.628906 18.15625 -0.203125 C 16.820312 0.222656 15.300781 0.4375 13.59375 0.4375 C 9.445312 0.4375 6.265625 -0.859375 4.046875 -3.453125 C 1.835938 -6.046875 0.734375 -9.4375 0.734375 -13.625 C 0.734375 -17.613281 1.894531 -20.90625 4.21875 -23.5 C 6.550781 -26.09375 9.6875 -27.390625 13.625 -27.390625 C 15.144531 -27.390625 16.734375 -27.171875 18.390625 -26.734375 C 20.054688 -26.296875 21.367188 -25.644531 22.328125 -24.78125 L 19.6875 -21.40625 C 19.019531 -22.144531 18.132812 -22.734375 17.03125 -23.171875 C 15.9375 -23.609375 14.863281 -23.828125 13.8125 -23.828125 C 12 -23.828125 10.5 -23.3125 9.3125 -22.28125 C 8.125 -21.257812 7.304688 -20.023438 6.859375 -18.578125 C 6.421875 -17.128906 6.203125 -15.515625 6.203125 -13.734375 C 6.203125 -12.554688 6.351562 -11.359375 6.65625 -10.140625 C 6.96875 -8.929688 7.414062 -7.78125 8 -6.6875 C 8.59375 -5.601562 9.398438 -4.71875 10.421875 -4.03125 C 11.453125 -3.351562 12.601562 -3.015625 13.875 -3.015625 C 16.15625 -3.015625 18.25 -3.929688 20.15625 -5.765625 Z M 22.46875 -2.28125 "/></g></g></g><g fill="#292929" fill-opacity="1"><g transform="translate(236.4125, 48.252762)"><g><path d="M 21.921875 0 L 16.046875 0 L 7.484375 -13.625 L 7.484375 0 L 2.421875 0 L 2.421875 -24.640625 C 2.421875 -24.660156 2.378906 -24.84375 2.296875 -25.1875 C 2.210938 -25.53125 2.125 -25.882812 2.03125 -26.25 C 1.945312 -26.625 1.90625 -26.832031 1.90625 -26.875 L 7.484375 -26.875 L 7.484375 -14.875 L 16.453125 -26.875 L 21.15625 -26.875 L 12.40625 -15.125 Z M 21.921875 0 "/></g></g></g></svg>